# xmcd
#
# Track frame offsets: 
#        150
#        12776
#        24037
#        35748
#        57000
#        72433
#        83660
#        106520
#        118257
#        131057
#        144108
#        152190
#        164803
#        178866
#        192732
#        205438
#        218071
#        230714
#
# Disc length: 3237 seconds
#
# Revision: 2
# Processed by: cddbd v1.5.2PL0 Copyright (c) Steve Scherf et al.
# Submitted via: ExactAudioCopyFreeDBPlugin 1.0
#
DISCID=020ca312
DTITLE=Dinah Washington - Mad About The Boy
DYEAR=1900
DGENRE=Blues
TTITLE0=Mad About the Boy
TTITLE1=What a Difference a Day Makes
TTITLE2=Ain't Misbehavin'
TTITLE3=Close to You (with Lionel Hampton)
TTITLE4=Smoke Gets in Your Eyes
TTITLE5=I Cried for You
TTITLE6=Willow Weep for Me (with Lionel Hampton)
TTITLE7=Shoo Shoo Baby
TTITLE8=All or Nothing
TTITLE9=Chewin' Mama Blues
TTITLE10=Jitterburg Waltz
TTITLE11=Look to the Rainbow
TTITLE12=Mellow Mama Blues
TTITLE13=My Loving Papa
TTITLE14=No Love No Nothin'
TTITLE15=Wise Woman Blues
TTITLE16=Unforgettable
TTITLE17=Do Nothing Till You Hear from Me
EXTD=ID3G:   0
EXTT0=
EXTT1=
EXTT2=
EXTT3=
EXTT4=
EXTT5=
EXTT6=
EXTT7=
EXTT8=
EXTT9=
EXTT10=
EXTT11=
EXTT12=
EXTT13=
EXTT14=
EXTT15=
EXTT16=
EXTT17=
PLAYORDER=
